<svg width="12" height="21" viewBox="0 0 12 21" fill="none" xmlns="http://www.w3.org/2000/svg">
<path fill-rule="evenodd" clip-rule="evenodd" d="M10.6875 0.25C10.7786 0.25 10.8633 0.266276 10.9414 0.298828C11.0195 0.33138 11.0911 0.380208 11.1562 0.445312C11.2865 0.575521 11.3516 0.735025 11.3516 0.923828C11.3516 1.11263 11.2865 1.27213 11.1562 1.40234L2.25 10.3086L11.0391 19.0977C11.1693 19.2279 11.2344 19.3841 11.2344 19.5664C11.2344 19.7487 11.1693 19.9049 11.0391 20.0352C10.9089 20.1654 10.7493 20.2305 10.5605 20.2305C10.3717 20.2305 10.2122 20.1654 10.082 20.0352L0.824219 10.7773C0.69401 10.6471 0.628906 10.4909 0.628906 10.3086C0.628906 10.1263 0.69401 9.97005 0.824219 9.83984L10.2188 0.445312C10.2839 0.380208 10.3587 0.33138 10.4434 0.298828C10.528 0.266276 10.6094 0.25 10.6875 0.25Z" fill="#4A4A4A"/>
</svg>
